<svg width="150" height="200" viewBox="0 0 150 200" fill="none" xmlns="http://www.w3.org/2000/svg">
<rect width="150" height="200" rx="16" fill="white"/>
<path d="M47.5 61.7171C47.5 57.1607 51.1937 53.467 55.75 53.467H94.25C98.8064 53.467 102.5 57.1607 102.5 61.717V98.2499C102.5 102.806 98.8063 106.5 94.25 106.5H55.75C51.1936 106.5 47.5 102.806 47.5 98.2499V61.7171Z" fill="#F3F3FA"/>
<path d="M47.5 61.717C47.5 57.1607 51.1937 53.467 55.75 53.467H94.25C98.8064 53.467 102.5 57.1607 102.5 61.717V63.8031H47.5V61.717Z" fill="#232323"/>
<g clip-path="url(#clip0_101_873)">
<path d="M84.0744 89.8889C83.7381 90.6781 83.34 91.4045 82.8787 92.0724C82.25 92.9828 81.7352 93.6131 81.3384 93.963C80.7234 94.5375 80.0645 94.8317 79.3589 94.8484C78.8523 94.8484 78.2414 94.702 77.5303 94.405C76.8169 94.1094 76.1612 93.963 75.5617 93.963C74.933 93.963 74.2587 94.1094 73.5374 94.405C72.815 94.702 72.2331 94.8568 71.7882 94.8721C71.1115 94.9014 70.4371 94.5988 69.7639 93.963C69.3342 93.5824 68.7967 92.9299 68.1529 92.0054C67.4621 91.0183 66.8942 89.8736 66.4493 88.5685C65.9728 87.1589 65.7339 85.7939 65.7339 84.4723C65.7339 82.9586 66.0559 81.6529 66.701 80.5588C67.208 79.68 67.8824 78.9868 68.7266 78.4778C69.5707 77.9689 70.4828 77.7096 71.465 77.693C72.0025 77.693 72.7073 77.8618 73.5831 78.1937C74.4565 78.5266 75.0173 78.6955 75.2631 78.6955C75.447 78.6955 76.0699 78.4981 77.126 78.1044C78.1247 77.7394 78.9676 77.5883 79.6581 77.6478C81.5293 77.8012 82.935 78.5503 83.8699 79.9C82.1964 80.9298 81.3686 82.3722 81.3851 84.2226C81.4002 85.6639 81.915 86.8633 82.9268 87.8156C83.3853 88.2576 83.8973 88.5992 84.467 88.8418C84.3435 89.2057 84.2131 89.5543 84.0744 89.8889ZM79.7831 72.7377C79.7831 73.8673 79.3767 74.9221 78.5668 75.8984C77.5893 77.059 76.4071 77.7297 75.125 77.6238C75.1087 77.4883 75.0992 77.3457 75.0992 77.1958C75.0992 76.1113 75.5641 74.9507 76.3895 74.0017C76.8016 73.5213 77.3258 73.1217 77.9614 72.8031C78.5956 72.4891 79.1955 72.3155 79.7597 72.2858C79.7762 72.4368 79.7831 72.5878 79.7831 72.7376V72.7377Z" fill="#232323"/>
</g>
<rect x="58.3882" y="51.5" width="3.70667" height="6.27452" rx="1.375" fill="#F8F7F9"/>
<rect x="87.9053" y="51.5" width="3.70667" height="6.27452" rx="1.375" fill="#F8F7F9"/>
<path d="M38.8931 140.032C39.7471 140.032 40.2791 138.912 40.2791 136.91C40.2791 134.908 39.7471 133.774 38.8931 133.774C38.0391 133.774 37.5071 134.908 37.5071 136.91C37.5071 138.912 38.0391 140.032 38.8931 140.032ZM38.8931 132.416C40.5311 132.416 41.6091 134.124 41.6091 136.91C41.6091 139.668 40.5311 141.39 38.8931 141.39C37.2551 141.39 36.1771 139.668 36.1771 136.91C36.1771 134.124 37.2551 132.416 38.8931 132.416ZM45.4731 131.436H46.8451V144.064H45.4731V137.54H44.0311V143.476H42.6731V131.674H44.0311V136.364H45.4731V131.436ZM55.804 134.95V132.906H52.892V134.95H55.804ZM51.45 134.95V132.906H49.658V131.8H59.024V132.906H57.246V134.95H58.954V136.042H49.728V134.95H51.45ZM51.45 141.936V142.888H59.01V143.966H50.022V140.942H57.232V140.06H49.994V138.996H58.646V141.936H51.45ZM48.636 136.924H60.088V138.072H48.636V136.924ZM72.6253 135.37V137.932H71.2673V131.674H72.6253V134.208H74.0253V131.436H75.3973V138.016H74.0253V135.37H72.6253ZM65.3453 132.15H70.3013C70.3013 135.188 68.8033 137.344 65.4293 138.604L64.7713 137.582C66.3533 137.022 67.4173 136.28 68.0753 135.37L64.9813 135.706L64.7713 134.558L68.6213 134.334C68.7333 133.998 68.8173 133.648 68.8593 133.298H65.3453V132.15ZM68.4113 142.804H75.8593V143.924H66.9833V140.662H73.9833V139.668H66.9553V138.562H75.3973V141.698H68.4113V142.804ZM87.7162 131.45V140.76H86.2602V131.45H87.7162ZM84.9722 137.47L85.1262 138.632C83.2082 138.982 81.5562 139.052 79.0082 139.052H77.9442V135.048H82.2842V133.466H77.9162V132.304H83.6982V136.14H79.3722V137.876C81.6682 137.862 83.1942 137.792 84.9722 137.47ZM80.8282 142.664H88.0522V143.84H79.3862V140.018H80.8282V142.664ZM91.9571 133.774V139.808C94.0151 139.794 95.4011 139.724 97.0111 139.43L97.1511 140.592C95.4011 140.928 93.8611 141.012 91.5091 141.012H90.5151V132.598H96.2551V133.774H91.9571ZM98.9571 131.422H100.399V144.106H98.9571V137.106H95.5691V135.916H98.9571V131.422ZM105.34 140.032C106.208 140.032 106.74 138.898 106.74 136.896C106.74 134.894 106.208 133.774 105.34 133.774C104.472 133.774 103.94 134.894 103.94 136.896C103.94 138.898 104.472 140.032 105.34 140.032ZM109.386 136.224V131.674H110.73V143.476H109.386V137.414H108.042C107.916 139.878 106.88 141.39 105.34 141.39C103.702 141.39 102.624 139.668 102.624 136.896C102.624 134.124 103.702 132.416 105.34 132.416C106.852 132.416 107.874 133.858 108.028 136.224H109.386ZM111.92 131.436H113.292V144.064H111.92V131.436ZM51.5382 155.212L51.0342 154.078C53.4842 153.784 55.2202 152.454 55.3462 151.096H51.4542V149.934H55.3602V148.45H56.8022V149.934H60.7222V151.096H56.8162C56.9422 152.44 58.6782 153.784 61.1282 154.078L60.6102 155.212C58.5522 154.946 56.9002 154.008 56.0742 152.748C55.2622 154.008 53.6102 154.932 51.5382 155.212ZM61.8002 156.038V157.228H56.8022V161.106H55.3602V157.228H50.3762V156.038H61.8002ZM63.5911 149.766H69.4571C69.4571 153.434 67.8891 156.682 63.7591 158.768L62.9611 157.662C66.0551 156.08 67.7211 153.854 68.0151 150.942H63.5911V149.766ZM74.6791 153.42V154.624H72.7611V161.064H71.3191V148.422H72.7611V153.42H74.6791ZM79.256 157.172C80.278 157.172 81.02 156.472 81.02 155.408C81.02 154.344 80.278 153.644 79.256 153.644C78.234 153.644 77.492 154.344 77.492 155.408C77.492 156.472 78.234 157.172 79.256 157.172ZM79.256 152.454C81.062 152.454 82.392 153.686 82.392 155.408C82.392 157.144 81.062 158.362 79.256 158.362C77.436 158.362 76.12 157.144 76.12 155.408C76.12 153.686 77.436 152.454 79.256 152.454ZM79.956 148.632V150.382H82.91V151.558H75.504V150.382H78.514V148.632H79.956ZM87.334 153.518V154.722H85.388V161.092H83.932V148.436H85.388V153.518H87.334ZM88.8869 149.766H94.8789C94.8789 153.532 93.3669 156.724 89.0269 158.824L88.2569 157.676C91.5749 156.08 93.1429 153.854 93.3949 150.942H88.8869V149.766ZM97.1609 148.436H98.6029V161.078H97.1609V148.436Z" fill="#262626"/>
<defs>
<clipPath id="clip0_101_873">
<rect width="22.24" height="22.5883" fill="white" transform="translate(63.8804 72.2855)"/>
</clipPath>
</defs>
</svg>

