<svg width="60" height="34" viewBox="0 0 60 34" fill="none" xmlns="http://www.w3.org/2000/svg">
<path d="M46 0C53.7319 5.15385e-07 59.9998 6.26818 60 14C60 21.732 53.732 28 46 28H34.377L30.2373 33.7363L26.0977 28H14C6.26801 28 0 21.732 0 14C0.000197923 6.26818 6.26814 3.22115e-08 14 0H46Z" fill="#262626"/>
<path d="M20.1962 16.92V17.832H26.8922V18.792H18.9842V16.02H25.2962V15.204H18.9602V14.244H26.5202V16.92H20.1962ZM26.2082 12.408H27.6242V13.392H17.8562V12.408H24.9722C25.0682 11.988 25.1162 11.604 25.1522 11.244L18.9362 11.508L18.7922 10.56L25.2122 10.368C25.2242 10.068 25.2242 9.792 25.2242 9.516H19.0802V8.544H26.4362V9.42C26.4362 10.272 26.4362 11.22 26.2082 12.408ZM35.2073 12.864L35.3513 13.86C33.6473 14.136 32.1833 14.196 30.1073 14.196H29.1953V10.92H32.9153V9.696H29.1713V8.7H34.1273V11.856H30.4193V13.188C32.2793 13.176 33.6353 13.116 35.2073 12.864ZM30.2633 16.272V15.264H37.5713V18.936H36.3353V16.272H30.2633ZM36.3353 8.076H37.5713V14.736H36.3353V8.076ZM40.2014 15.1992L40.0784 9.53906H41.508L41.3909 15.1992H40.2014ZM40.7991 18.1289C40.5256 18.1289 40.3049 18.0488 40.137 17.8887C39.9729 17.7285 39.8909 17.5176 39.8909 17.2559C39.8909 16.9902 39.9729 16.7773 40.137 16.6172C40.3049 16.4531 40.5256 16.3711 40.7991 16.3711C41.0686 16.3711 41.2854 16.4531 41.4495 16.6172C41.6174 16.7773 41.7014 16.9902 41.7014 17.2559C41.7014 17.5176 41.6174 17.7285 41.4495 17.8887C41.2854 18.0488 41.0686 18.1289 40.7991 18.1289Z" fill="white"/>
</svg>







