<svg width="60" height="34" viewBox="0 0 60 34" fill="none" xmlns="http://www.w3.org/2000/svg">
<path d="M46 0C53.7319 5.15385e-07 59.9998 6.26818 60 14C60 21.732 53.732 28 46 28H34.377L30.2373 33.7363L26.0977 28H14C6.26801 28 0 21.732 0 14C0.000197923 6.26818 6.26814 3.22115e-08 14 0H46Z" fill="#262626"/>
<path d="M28.6209 8.088V15.96H27.3849V8.088H28.6209ZM21.1089 11.52C21.1089 12.504 21.8169 13.164 22.7769 13.164C23.7249 13.164 24.4449 12.504 24.4449 11.52C24.4449 10.524 23.7249 9.876 22.7769 9.876C21.8169 9.876 21.1089 10.524 21.1089 11.52ZM25.6449 11.52C25.6449 13.092 24.4089 14.232 22.7769 14.232C21.1449 14.232 19.8969 13.092 19.8969 11.52C19.8969 9.936 21.1449 8.808 22.7769 8.808C24.4089 8.808 25.6449 9.936 25.6449 11.52ZM22.7889 17.712H28.9329V18.72H21.5409V15.168H22.7889V17.712ZM31.104 9.228H36.24C36.24 12.456 34.944 15.192 31.224 16.992L30.564 16.008C33.408 14.64 34.752 12.732 34.968 10.236H31.104V9.228ZM38.196 8.088H39.432V18.924H38.196V8.088Z" fill="white"/>
</svg>

