<svg width="150" height="200" viewBox="0 0 150 200" fill="none" xmlns="http://www.w3.org/2000/svg">
<rect width="150" height="200" rx="16" fill="white"/>
<path d="M47.5 61.717C47.5 57.1607 51.1937 53.467 55.75 53.467H94.25C98.8064 53.467 102.5 57.1607 102.5 61.717V98.25C102.5 102.806 98.8063 106.5 94.25 106.5H55.75C51.1936 106.5 47.5 102.806 47.5 98.25V61.717Z" fill="#F3F3FA"/>
<path d="M47.5 61.717C47.5 57.1607 51.1937 53.467 55.75 53.467H94.25C98.8064 53.467 102.5 57.1607 102.5 61.717V63.8031H47.5V61.717Z" fill="#4285F4"/>
<g clip-path="url(#clip0_117_1645)">
<path d="M75 82.425V86.7989H80.9846C80.7218 88.2055 79.9332 89.3966 78.7504 90.1975L82.3593 93.0415C84.462 91.0703 85.6751 88.1748 85.6751 84.7353C85.6751 83.9344 85.6044 83.1643 85.4729 82.4251L75 82.425Z" fill="#4285F4"/>
<path d="M68.7683 86.6282L67.9544 87.261L65.0732 89.5403C66.903 93.2263 70.6532 95.7727 75 95.7727C78.0024 95.7727 80.5195 94.7664 82.3594 93.0416L78.7505 90.1975C77.7598 90.8751 76.4961 91.2858 75 91.2858C72.1089 91.2858 69.6524 89.3042 68.7729 86.6347L68.7683 86.6282Z" fill="#34A853"/>
<path d="M65.0732 79.4167C64.315 80.9362 63.8804 82.6509 63.8804 84.4784C63.8804 86.306 64.315 88.0207 65.0732 89.5402C65.0732 89.5504 68.7731 86.6243 68.7731 86.6243C68.5507 85.9466 68.4193 85.228 68.4193 84.4783C68.4193 83.7287 68.5507 83.01 68.7731 82.3324L65.0732 79.4167Z" fill="#FBBC05"/>
<path d="M75.0003 77.6815C76.638 77.6815 78.0937 78.2564 79.2562 79.3653L82.4405 76.1311C80.5097 74.3036 78.0027 73.1844 75.0003 73.1844C70.6534 73.1844 66.903 75.7204 65.0732 79.4167L68.7731 82.3326C69.6526 79.6631 72.1091 77.6815 75.0003 77.6815Z" fill="#EA4335"/>
</g>
<rect x="58.3882" y="51.5" width="3.70667" height="6.27453" rx="1.375" fill="#F8F7F9"/>
<rect x="87.9053" y="51.5" width="3.70667" height="6.27453" rx="1.375" fill="#F8F7F9"/>
<path d="M47.4891 137.61V138.8H42.4491V144.078H40.9931V138.8H36.0511V137.61H44.2691C44.6331 135.846 44.6331 134.53 44.6331 133.368H37.4231V132.206H46.0471V133.312C46.0471 134.502 46.0471 135.818 45.7251 137.61H47.4891ZM51.436 141.628V142.818H59.01V143.952H49.994V140.55H57.246V139.416H49.966V138.268H58.688V141.628H51.436ZM58.408 136.028H60.102V137.19H48.65V136.028H56.966C57.218 134.824 57.26 133.9 57.26 133.116H50.092V131.954H58.674V132.794C58.674 133.62 58.674 134.684 58.408 136.028ZM72.6253 135.37V137.932H71.2673V131.674H72.6253V134.208H74.0253V131.436H75.3973V138.016H74.0253V135.37H72.6253ZM65.3453 132.15H70.3013C70.3013 135.188 68.8033 137.344 65.4293 138.604L64.7713 137.582C66.3533 137.022 67.4173 136.28 68.0753 135.37L64.9813 135.706L64.7713 134.558L68.6213 134.334C68.7333 133.998 68.8173 133.648 68.8593 133.298H65.3453V132.15ZM68.4113 142.804H75.8593V143.924H66.9833V140.662H73.9833V139.668H66.9553V138.562H75.3973V141.698H68.4113V142.804ZM87.7162 131.45V140.76H86.2602V131.45H87.7162ZM84.9722 137.47L85.1262 138.632C83.2082 138.982 81.5562 139.052 79.0082 139.052H77.9442V135.048H82.2842V133.466H77.9162V132.304H83.6982V136.14H79.3722V137.876C81.6682 137.862 83.1942 137.792 84.9722 137.47ZM80.8282 142.664H88.0522V143.84H79.3862V140.018H80.8282V142.664ZM91.9571 133.774V139.808C94.0151 139.794 95.4011 139.724 97.0111 139.43L97.1511 140.592C95.4011 140.928 93.8611 141.012 91.5091 141.012H90.5151V132.598H96.2551V133.774H91.9571ZM98.9571 131.422H100.399V144.106H98.9571V137.106H95.5691V135.916H98.9571V131.422ZM105.34 140.032C106.208 140.032 106.74 138.898 106.74 136.896C106.74 134.894 106.208 133.774 105.34 133.774C104.472 133.774 103.94 134.894 103.94 136.896C103.94 138.898 104.472 140.032 105.34 140.032ZM109.386 136.224V131.674H110.73V143.476H109.386V137.414H108.042C107.916 139.878 106.88 141.39 105.34 141.39C103.702 141.39 102.624 139.668 102.624 136.896C102.624 134.124 103.702 132.416 105.34 132.416C106.852 132.416 107.874 133.858 108.028 136.224H109.386ZM111.92 131.436H113.292V144.064H111.92V131.436ZM51.5382 155.212L51.0342 154.078C53.4842 153.784 55.2202 152.454 55.3462 151.096H51.4542V149.934H55.3602V148.45H56.8022V149.934H60.7222V151.096H56.8162C56.9422 152.44 58.6782 153.784 61.1282 154.078L60.6102 155.212C58.5522 154.946 56.9002 154.008 56.0742 152.748C55.2622 154.008 53.6102 154.932 51.5382 155.212ZM61.8002 156.038V157.228H56.8022V161.106H55.3602V157.228H50.3762V156.038H61.8002ZM63.5911 149.766H69.4571C69.4571 153.434 67.8891 156.682 63.7591 158.768L62.9611 157.662C66.0551 156.08 67.7211 153.854 68.0151 150.942H63.5911V149.766ZM74.6791 153.42V154.624H72.7611V161.064H71.3191V148.422H72.7611V153.42H74.6791ZM79.256 157.172C80.278 157.172 81.02 156.472 81.02 155.408C81.02 154.344 80.278 153.644 79.256 153.644C78.234 153.644 77.492 154.344 77.492 155.408C77.492 156.472 78.234 157.172 79.256 157.172ZM79.256 152.454C81.062 152.454 82.392 153.686 82.392 155.408C82.392 157.144 81.062 158.362 79.256 158.362C77.436 158.362 76.12 157.144 76.12 155.408C76.12 153.686 77.436 152.454 79.256 152.454ZM79.956 148.632V150.382H82.91V151.558H75.504V150.382H78.514V148.632H79.956ZM87.334 153.518V154.722H85.388V161.092H83.932V148.436H85.388V153.518H87.334ZM88.8869 149.766H94.8789C94.8789 153.532 93.3669 156.724 89.0269 158.824L88.2569 157.676C91.5749 156.08 93.1429 153.854 93.3949 150.942H88.8869V149.766ZM97.1609 148.436H98.6029V161.078H97.1609V148.436Z" fill="#262626"/>
<defs>
<clipPath id="clip0_117_1645">
<rect width="22.24" height="22.5883" fill="white" transform="translate(63.8804 73.1844)"/>
</clipPath>
</defs>
</svg>


