<svg width="253" height="36" viewBox="0 0 253 36" fill="none" xmlns="http://www.w3.org/2000/svg">
<path d="M56.4663 27.6844L51.27 35.1844L46.0737 27.6844H56.4663Z" fill="#262626"/>
<rect width="252.547" height="28" rx="14" fill="#262626"/>
<path d="M18.9938 9.73V14.32H17.9638V9.73H18.9938ZM12.7238 12.07C12.7238 12.79 13.3038 13.26 14.0838 13.26C14.8738 13.26 15.4638 12.79 15.4638 12.07C15.4638 11.35 14.8738 10.88 14.0838 10.88C13.3038 10.88 12.7238 11.35 12.7238 12.07ZM16.4638 12.07C16.4638 13.26 15.4538 14.1 14.0838 14.1C12.7238 14.1 11.7238 13.26 11.7238 12.07C11.7238 10.88 12.7238 10.03 14.0838 10.03C15.4538 10.03 16.4638 10.88 16.4638 12.07ZM14.1038 17.85H19.2638V18.66H13.0938V16.29H17.9738V15.54H13.0738V14.73H18.9938V17.05H14.1038V17.85ZM25.4031 12.01H27.0031V9.74H28.0331V15.12H27.0031V12.85H25.4031V12.01ZM25.9231 14.02L25.4131 14.83C24.4131 14.48 23.6931 13.77 23.3131 12.9C22.9131 13.89 22.1531 14.69 21.0831 15.07L20.5531 14.25C21.9531 13.75 22.7631 12.55 22.7631 11.31V11.18H20.8531V10.35H25.6831V11.18H23.8031V11.3C23.8031 12.43 24.5731 13.55 25.9231 14.02ZM25.0331 17.98C26.3031 17.98 27.0431 17.66 27.0431 17.07C27.0431 16.48 26.3031 16.16 25.0331 16.16C23.7431 16.16 23.0131 16.48 23.0131 17.07C23.0131 17.66 23.7431 17.98 25.0331 17.98ZM25.0331 15.36C26.9131 15.36 28.0731 16 28.0731 17.07C28.0731 18.15 26.9131 18.78 25.0331 18.78C23.1431 18.78 21.9831 18.15 21.9831 17.07C21.9831 16 23.1431 15.36 25.0331 15.36ZM35.9923 11.75H34.1223V12.6H35.9923V11.75ZM33.1123 13.29V12.11H30.9823V13.29H33.1123ZM34.1223 13.4V14.11H29.9623V10.14H30.9823V11.32H33.1123V10.14H34.1223V10.96H35.9923V9.74H37.0323V14.42H35.9923V13.4H34.1223ZM32.1823 17.85H37.3323V18.66H31.1623V16.32H36.0123V15.63H31.1523V14.82H37.0323V17.08H32.1823V17.85ZM46.3261 13.87L45.7861 14.68C44.8161 14.33 44.0961 13.64 43.7161 12.79C43.3161 13.77 42.5761 14.55 41.5361 14.93L40.9861 14.11C42.4061 13.62 43.1761 12.39 43.1761 11.09V10.2H44.2161V11.17C44.2161 12.33 44.9861 13.43 46.3261 13.87ZM45.2161 17.96C46.4761 17.96 47.2061 17.65 47.2061 17.07C47.2061 16.51 46.4761 16.19 45.2161 16.19C43.9561 16.19 43.2261 16.51 43.2261 17.07C43.2261 17.65 43.9561 17.96 45.2161 17.96ZM45.2161 15.38C47.0861 15.38 48.2261 16.01 48.2261 17.07C48.2261 18.14 47.0861 18.77 45.2161 18.77C43.3561 18.77 42.2061 18.14 42.2061 17.07C42.2061 16.01 43.3561 15.38 45.2161 15.38ZM48.1261 11.97H49.4061V12.82H48.1261V15.16H47.0961V9.73H48.1261V11.97ZM52.8453 10.57V12.15C52.8453 13.61 53.3953 15.14 54.6053 15.9L54.0253 16.7C53.2053 16.2 52.6653 15.32 52.3553 14.31C52.0353 15.42 51.4453 16.37 50.5753 16.9L49.9453 16.12C51.2253 15.36 51.8453 13.74 51.8453 12.2V10.57H52.8453ZM54.9653 12.9V9.91H55.9353V18.35H54.9653V13.74H53.6353V12.9H54.9653ZM56.8053 9.74H57.7853V18.77H56.8053V9.74ZM63.0292 10.78V15.61C63.8292 15.59 64.6992 15.52 65.6792 15.34L65.7892 16.22C64.5792 16.44 63.5392 16.49 62.5992 16.49H61.9992V10.78H63.0292ZM68.2992 9.74H69.2792V18.77H68.2992V14.18H67.2292V18.32H66.2592V9.92H67.2292V13.33H68.2992V9.74ZM74.6584 17.98C75.9784 17.98 76.7284 17.7 76.7284 17.15C76.7284 16.61 75.9784 16.32 74.6584 16.32C73.3384 16.32 72.5984 16.61 72.5984 17.15C72.5984 17.7 73.3384 17.98 74.6584 17.98ZM74.6584 15.53C76.6084 15.53 77.7684 16.12 77.7684 17.15C77.7684 18.19 76.6084 18.77 74.6584 18.77C72.7184 18.77 71.5484 18.19 71.5484 17.15C71.5484 16.12 72.7184 15.53 74.6584 15.53ZM73.5584 13.21V14.13H75.7784V13.21C75.4484 13.26 75.0784 13.29 74.6784 13.29C74.2784 13.29 73.8884 13.26 73.5584 13.21ZM74.6784 10.69C73.3284 10.69 72.5184 11.01 72.5184 11.59C72.5184 12.17 73.3284 12.5 74.6784 12.5C76.0184 12.5 76.8284 12.17 76.8284 11.59C76.8284 11.01 76.0184 10.69 74.6784 10.69ZM76.8084 14.13H78.7584V14.95H70.5884V14.13H72.5284V12.93C71.8484 12.64 71.4584 12.18 71.4584 11.59C71.4584 10.53 72.6984 9.89 74.6784 9.89C76.6484 9.89 77.8984 10.53 77.8984 11.59C77.8984 12.18 77.4984 12.64 76.8084 12.94V14.13ZM83.6776 10.65C82.2776 10.65 81.5276 10.92 81.5276 11.44C81.5276 11.95 82.2776 12.22 83.6776 12.22C85.0776 12.22 85.8276 11.95 85.8276 11.44C85.8276 10.92 85.0776 10.65 83.6776 10.65ZM83.6776 12.99C81.6476 12.99 80.4576 12.44 80.4576 11.44C80.4576 10.43 81.6476 9.88 83.6776 9.88C85.6976 9.88 86.8976 10.43 86.8976 11.44C86.8976 12.44 85.6976 12.99 83.6776 12.99ZM81.5976 17.15V17.9H86.9976V18.69H80.5776V16.42H85.7276V15.77H80.5576V14.99H86.7376V17.15H81.5976ZM79.5876 13.52H87.7676V14.34H79.5876V13.52ZM96.4314 10.5V11.25H91.2714V10.5H93.3414V9.66H94.3814V10.5H96.4314ZM92.6714 12.88C92.6714 13.28 93.1314 13.52 93.8514 13.52C94.5714 13.52 95.0314 13.28 95.0314 12.88C95.0314 12.47 94.5714 12.22 93.8514 12.22C93.1314 12.22 92.6714 12.47 92.6714 12.88ZM96.6814 14.54L96.7614 15.26C94.8514 15.6 92.7414 15.61 91.1614 15.62L91.0414 14.8C91.7214 14.8 92.5114 14.8 93.3414 14.78V14.18C92.3214 14.07 91.7014 13.59 91.7014 12.88C91.7014 12.04 92.5514 11.53 93.8514 11.53C95.1514 11.53 96.0014 12.04 96.0014 12.88C96.0014 13.59 95.3814 14.06 94.3814 14.18V14.74C95.1614 14.7 95.9514 14.65 96.6814 14.54ZM92.1614 17.07V16.25H98.1914V18.78H97.1614V17.07H92.1614ZM99.4314 12.41V13.26H98.1914V15.85H97.1614V9.75H98.1914V12.41H99.4314ZM107.561 9.74V16.3H106.531V9.74H107.561ZM101.301 12.6C101.301 13.42 101.891 13.97 102.691 13.97C103.481 13.97 104.081 13.42 104.081 12.6C104.081 11.77 103.481 11.23 102.691 11.23C101.891 11.23 101.301 11.77 101.301 12.6ZM105.081 12.6C105.081 13.91 104.051 14.86 102.691 14.86C101.331 14.86 100.291 13.91 100.291 12.6C100.291 11.28 101.331 10.34 102.691 10.34C104.051 10.34 105.081 11.28 105.081 12.6ZM102.701 17.76H107.821V18.6H101.661V15.64H102.701V17.76ZM114.46 10.5V11.28H109.13V10.5H111.28V9.65H112.31V10.5H114.46ZM110.59 13.08C110.59 13.54 111.06 13.81 111.79 13.81C112.53 13.81 113 13.54 113 13.08C113 12.61 112.53 12.34 111.79 12.34C111.06 12.34 110.59 12.61 110.59 13.08ZM113.98 13.08C113.98 13.99 113.12 14.55 111.79 14.55C110.47 14.55 109.6 13.99 109.6 13.08C109.6 12.16 110.47 11.59 111.79 11.59C113.12 11.59 113.98 12.16 113.98 13.08ZM111.37 17.21V17.92H116.47V18.69H110.36V16.49H115.15V15.84H110.34V15.08H116.17V17.21H111.37ZM116.17 11.78H117.45V12.63H116.17V14.67H115.14V9.72H116.17V11.78ZM128.454 13.07L128.054 13.9C126.554 13.66 125.324 12.9 124.734 11.86C124.154 12.91 122.904 13.66 121.404 13.9L121.004 13.07C122.844 12.81 124.184 11.7 124.184 10.51V10.03H125.274V10.51C125.274 11.68 126.634 12.81 128.454 13.07ZM128.804 14.75V15.59H125.214V18.78H124.184V15.59H120.644V14.75H128.804ZM139.608 9.75V14.88H138.578V9.75H139.608ZM134.738 11.09C133.938 11.09 133.348 11.6 133.348 12.37C133.348 13.15 133.938 13.65 134.738 13.65C135.538 13.65 136.128 13.15 136.128 12.37C136.128 11.6 135.538 11.09 134.738 11.09ZM134.738 14.5C133.358 14.5 132.338 13.63 132.338 12.37C132.338 11.11 133.358 10.24 134.738 10.24C136.118 10.24 137.128 11.11 137.128 12.37C137.128 13.63 136.118 14.5 134.738 14.5ZM138.648 15.27V15.67C138.648 16.6 139.238 17.51 140.408 17.89L139.898 18.65C139.028 18.34 138.438 17.76 138.128 17.03C137.838 17.74 137.298 18.39 136.478 18.73C135.628 18.4 135.098 17.78 134.818 17.05C134.488 17.76 133.908 18.34 133.068 18.65L132.568 17.89C133.718 17.48 134.318 16.55 134.318 15.67V15.27H135.318V15.67C135.318 16.43 135.668 17.24 136.458 17.74C137.258 17.2 137.638 16.35 137.638 15.67V15.27H138.648ZM148.417 12.33V13.17H142.217V10.06H143.247V12.33H148.417ZM143.187 15.91V17.74H148.467V18.57H142.157V15.91H143.187ZM141.157 14.25H149.357V15.08H141.157V14.25ZM159.591 13.33L158.581 13.22C158.811 12.33 158.821 11.68 158.821 11H153.641V10.17H159.841V10.93C159.841 11.65 159.841 12.4 159.591 13.33ZM156.741 17.98C158.071 17.98 158.871 17.65 158.871 17.08C158.871 16.52 158.071 16.19 156.741 16.19C155.401 16.19 154.581 16.52 154.581 17.08C154.581 17.65 155.401 17.98 156.741 17.98ZM156.741 15.4C158.661 15.4 159.901 16.04 159.901 17.08C159.901 18.13 158.661 18.77 156.741 18.77C154.791 18.77 153.561 18.13 153.561 17.08C153.561 16.04 154.791 15.4 156.741 15.4ZM156.941 13.87H160.841V14.7H152.701V13.87H155.901V12.21H156.941V13.87ZM165.02 11.49V12.35C165.02 13.85 165.95 15.41 167.36 16.01L166.79 16.82C165.74 16.36 164.93 15.38 164.51 14.21C164.11 15.47 163.3 16.54 162.24 17.05L161.65 16.23C163.05 15.58 163.98 13.9 163.98 12.35V11.49H161.97V10.64H167.03V11.49H165.02ZM168.08 9.74H169.12V18.77H168.08V9.74ZM180.654 9.74V15.27H179.624V9.74H180.654ZM178.684 13.68L178.804 14.52C177.384 14.75 176.164 14.79 174.434 14.79H173.674V12.12H176.774V11.12H173.654V10.29H177.784V12.9H174.694V13.95C176.244 13.95 177.374 13.9 178.684 13.68ZM177.654 17.96C178.954 17.96 179.684 17.66 179.684 17.11C179.684 16.55 178.954 16.25 177.654 16.25C176.364 16.25 175.624 16.55 175.624 17.11C175.624 17.66 176.364 17.96 177.654 17.96ZM177.654 15.44C179.554 15.44 180.714 16.06 180.714 17.11C180.714 18.16 179.554 18.78 177.654 18.78C175.754 18.78 174.604 18.16 174.604 17.11C174.604 16.06 175.754 15.44 177.654 15.44ZM182.913 13.3L188.423 13.09C188.443 12.61 188.443 12.15 188.443 11.69V11.43H183.163V10.6H189.453V11.69C189.453 13 189.453 14.24 189.053 16.14L188.033 16.05C188.223 15.24 188.323 14.53 188.373 13.87L183.043 14.14L182.913 13.3ZM182.213 16.75H190.373V17.6H182.213V16.75ZM195.802 16.84H199.392V17.69H191.212V16.84H194.772V14.71H192.212V10.42H198.392V11.25H193.242V13.88H198.472V14.71H195.802V16.84ZM205.476 11.57V12.22C205.476 13.76 206.056 15.32 207.316 16.05L206.716 16.8C205.866 16.3 205.306 15.41 204.986 14.36C204.666 15.5 204.086 16.47 203.216 17.02L202.596 16.26C203.876 15.46 204.476 13.83 204.476 12.22V11.57H202.886V10.72H206.966V11.57H205.476ZM207.636 12.91V9.91H208.606V18.33H207.636V13.75H206.306V12.91H207.636ZM209.456 9.73H210.436V18.76H209.456V9.73ZM218.635 13.33L217.625 13.22C217.855 12.33 217.865 11.68 217.865 11H212.685V10.17H218.885V10.93C218.885 11.65 218.885 12.4 218.635 13.33ZM215.785 17.98C217.115 17.98 217.915 17.65 217.915 17.08C217.915 16.52 217.115 16.19 215.785 16.19C214.445 16.19 213.625 16.52 213.625 17.08C213.625 17.65 214.445 17.98 215.785 17.98ZM215.785 15.4C217.705 15.4 218.945 16.04 218.945 17.08C218.945 18.13 217.705 18.77 215.785 18.77C213.835 18.77 212.605 18.13 212.605 17.08C212.605 16.04 213.835 15.4 215.785 15.4ZM215.985 13.87H219.885V14.7H211.745V13.87H214.945V12.21H215.985V13.87ZM223.514 14.36V15.99C224.124 15.96 224.704 15.92 225.224 15.85L225.284 16.6C223.834 16.87 221.944 16.91 220.744 16.91L220.614 16.06C221.154 16.06 221.824 16.05 222.534 16.03V14.36H221.044V10.61H224.884V11.45H222.054V13.53H224.964V14.36H223.514ZM227.474 9.74H228.454V18.77H227.474V14.26H226.584V18.33H225.614V9.92H226.584V13.42H227.474V9.74ZM232.674 14.86V16.82H234.954V14.85C234.604 14.94 234.214 14.98 233.814 14.98C233.414 14.98 233.024 14.94 232.674 14.86ZM233.814 11.07C232.444 11.07 231.494 11.67 231.494 12.62C231.494 13.58 232.444 14.18 233.814 14.18C235.174 14.18 236.124 13.58 236.124 12.62C236.124 11.67 235.174 11.07 233.814 11.07ZM235.984 16.82H237.914V17.66H229.734V16.82H231.644V14.47C230.924 14.07 230.494 13.42 230.494 12.62C230.494 11.18 231.884 10.26 233.814 10.26C235.734 10.26 237.134 11.18 237.134 12.62C237.134 13.42 236.704 14.06 235.984 14.47V16.82ZM239.365 15.666L239.263 10.9492H240.454L240.357 15.666H239.365ZM239.863 18.1074C239.636 18.1074 239.452 18.0407 239.312 17.9072C239.175 17.7738 239.107 17.598 239.107 17.3799C239.107 17.1585 239.175 16.9811 239.312 16.8477C239.452 16.7109 239.636 16.6426 239.863 16.6426C240.088 16.6426 240.269 16.7109 240.405 16.8477C240.545 16.9811 240.615 17.1585 240.615 17.3799C240.615 17.598 240.545 17.7738 240.405 17.9072C240.269 18.0407 240.088 18.1074 239.863 18.1074Z" fill="white"/>
</svg>



