<svg width="80" height="15" viewBox="0 0 80 15" fill="none" xmlns="http://www.w3.org/2000/svg">
<path d="M13.2256 3.91602C14.3385 3.91613 15.2793 4.1434 16.0195 4.62793H16.0186C16.6116 5.00601 17.0865 5.50459 17.4404 6.11914C17.6742 6.52513 17.4822 7.00328 17.1074 7.19727L16.8057 7.35352C16.3813 7.57239 15.907 7.3727 15.6846 7.02441C15.4552 6.66537 15.1622 6.38871 14.8037 6.18945L14.7959 6.18457C14.3178 5.90206 13.7901 5.75984 13.207 5.75977C12.5827 5.75977 12.1286 5.91043 11.8076 6.17285C11.4892 6.44302 11.3526 6.73782 11.3525 7.06836C11.3526 7.23913 11.3801 7.36997 11.4229 7.46973C11.4829 7.56926 11.5585 7.65744 11.6514 7.73535C11.758 7.81235 11.8818 7.88249 12.0244 7.94434C12.1814 8.00008 12.3445 8.05156 12.5137 8.09668H12.5156C12.9107 8.20444 13.2829 8.30734 13.6309 8.40332H13.6318L14.7979 8.67676L14.8008 8.67773C15.6321 8.88241 16.3175 9.2206 16.833 9.70898H16.832C17.3805 10.2167 17.6513 10.8759 17.6514 11.6553C17.6514 12.1425 17.5418 12.5966 17.3223 13.0117L17.3232 13.0127C17.118 13.4231 16.8238 13.7704 16.4482 14.0547C16.0782 14.3561 15.6335 14.5774 15.1221 14.7217L15.1211 14.7207C14.6243 14.8762 14.082 14.9531 13.498 14.9531C12.242 14.9531 11.197 14.7013 10.3936 14.166C9.76309 13.7492 9.27478 13.2192 8.93652 12.5762C8.71159 12.1485 8.94461 11.6707 9.34082 11.5049L9.72266 11.3447C10.1391 11.1711 10.5796 11.3737 10.7842 11.7158C11.028 12.1238 11.3401 12.437 11.7217 12.6621C12.2199 12.9437 12.8087 13.0908 13.498 13.0908C14.157 13.0908 14.637 12.9539 14.9717 12.7178L14.9756 12.7148C15.3011 12.4914 15.4619 12.1885 15.4619 11.7646C15.4618 11.4023 15.3546 11.1859 15.1895 11.0508L15.0059 10.9131C14.818 10.7896 14.5928 10.6936 14.3262 10.6289L14.3213 10.6279C13.8961 10.5186 13.5007 10.4147 13.1357 10.3174C12.7765 10.2216 12.3858 10.1255 11.9648 10.0293L11.9629 10.0283C11.1923 9.84851 10.5339 9.54299 10 9.10254L9.99609 9.09961C9.43671 8.62611 9.16314 7.98457 9.16309 7.21387C9.16314 6.70939 9.27956 6.24239 9.51758 5.82227C9.74788 5.41599 10.0542 5.07021 10.4316 4.78711C10.8053 4.50696 11.235 4.29627 11.7158 4.15234C12.2004 3.99525 12.7049 3.91602 13.2256 3.91602ZM22.9785 3.91602C24.0915 3.91608 25.0322 4.14347 25.7725 4.62793H25.7715C26.3647 5.00606 26.8403 5.50443 27.1943 6.11914C27.4281 6.52521 27.2353 7.00339 26.8604 7.19727L26.5596 7.35352C26.1351 7.57258 25.6609 7.37277 25.4385 7.02441C25.2091 6.66519 24.9153 6.38876 24.5566 6.18945L24.5488 6.18457C24.0707 5.90209 23.543 5.75984 22.96 5.75977C22.3388 5.75983 21.8861 5.90887 21.5654 6.16895L21.4531 6.27246C21.2116 6.51511 21.1065 6.77793 21.1064 7.06836C21.1065 7.24156 21.135 7.37335 21.1787 7.47363C21.2383 7.57146 21.3128 7.65853 21.4043 7.73535C21.5116 7.81287 21.6365 7.88315 21.7803 7.94531C21.9366 8.00073 22.0992 8.05179 22.2676 8.09668H22.2695C22.6648 8.20448 23.0366 8.3073 23.3848 8.40332H23.3857L24.5508 8.67676L24.5547 8.67773C25.3842 8.88199 26.0679 9.21932 26.583 9.70605L26.7764 9.9043C27.1968 10.3815 27.4042 10.9723 27.4043 11.6553C27.4043 12.1425 27.2948 12.5965 27.0752 13.0117L27.0762 13.0127C26.8709 13.4231 26.5768 13.7704 26.2012 14.0547L26.2021 14.0557C25.8322 14.3571 25.3864 14.5774 24.875 14.7217L24.874 14.7207C24.3775 14.8761 23.8357 14.9531 23.252 14.9531C21.9956 14.9531 20.95 14.7014 20.1465 14.166C19.5161 13.7492 19.0277 13.2191 18.6895 12.5762C18.4646 12.1484 18.6984 11.6705 19.0947 11.5049L19.4756 11.3447C19.892 11.171 20.3325 11.3738 20.5371 11.7158C20.7811 12.124 21.0938 12.4369 21.4756 12.6621L21.666 12.7617C22.1219 12.9785 22.6485 13.0908 23.252 13.0908C23.9109 13.0907 24.391 12.954 24.7256 12.7178L24.7295 12.7148C25.0549 12.4914 25.2148 12.1884 25.2148 11.7646C25.2148 11.4023 25.1075 11.1859 24.9424 11.0508L24.9355 11.0449C24.7172 10.8563 24.4354 10.7152 24.0801 10.6289L24.0752 10.6279C23.6497 10.5185 23.2538 10.4147 22.8887 10.3174C22.5294 10.2216 22.1388 10.1255 21.7178 10.0293L21.7158 10.0283C20.9453 9.84849 20.2868 9.54295 19.7529 9.10254L19.75 9.09961C19.1904 8.62608 18.917 7.98473 18.917 7.21387C18.917 6.70929 19.0334 6.24246 19.2715 5.82227C19.5018 5.41604 19.8072 5.07019 20.1846 4.78711C20.5584 4.50681 20.9887 4.29628 21.4697 4.15234V4.15137C21.9542 3.99436 22.458 3.91602 22.9785 3.91602ZM29.7373 4.24414C30.1858 4.24463 30.5494 4.60814 30.5498 5.05664V10.709C30.5498 11.5207 30.7389 12.0889 31.0654 12.4648C31.3944 12.8434 31.8233 13.0361 32.3857 13.0361C32.7856 13.0361 33.1221 12.9608 33.4033 12.8223C33.6976 12.6645 33.9377 12.457 34.124 12.1982L34.125 12.1963C34.3275 11.9191 34.48 11.5949 34.5791 11.2207C34.6799 10.8278 34.7314 10.4026 34.7314 9.94434V5.05664C34.7318 4.60784 35.096 4.24414 35.5449 4.24414H36.0713C36.52 4.2444 36.8844 4.608 36.8848 5.05664V13.8115C36.8848 14.2605 36.5202 14.6247 36.0713 14.625H35.5117C35.1616 14.625 34.8712 14.3572 34.8408 14.0098C34.8356 14.0053 34.8232 13.9967 34.8027 13.9902C34.7785 13.9827 34.7521 13.9811 34.7305 13.9844C34.7104 13.9875 34.7 13.994 34.6963 13.9971C34.4883 14.1786 34.2581 14.3376 34.0088 14.4736L34.0078 14.4727C33.4333 14.7925 32.8054 14.953 32.1309 14.9531C31.0082 14.9531 30.0833 14.597 29.3994 13.8584C28.7133 13.1173 28.3965 12.0728 28.3965 10.7812V5.05664C28.3969 4.60784 28.7611 4.24414 29.21 4.24414H29.7373ZM51.0205 14.7207H48.7773V3.68652H51.0205V14.7207ZM63.3174 3.68652C64.5264 3.68656 65.5664 4.12131 66.4307 4.98535C67.2949 5.84961 67.7293 6.88966 67.7295 8.09863V14.7207H65.4863V8.09863C65.4861 7.50026 65.2746 6.99138 64.8496 6.56641C64.4246 6.14166 63.9158 5.92973 63.3174 5.92969C62.7188 5.92979 62.2041 6.14151 61.7686 6.56738C61.3442 6.99217 61.133 7.50068 61.1328 8.09863V14.7207H58.8896V8.09863C58.8894 7.50039 58.6787 6.99132 58.2539 6.56641C57.8288 6.14154 57.3192 5.92969 56.7207 5.92969C56.1223 5.9298 55.6135 6.14148 55.1885 6.56641C54.7635 6.99138 54.552 7.50026 54.5518 8.09863V14.7207H52.3086V8.09863C52.3088 6.89012 52.7369 5.84971 53.5908 4.98535H53.5918C54.4564 4.1208 55.5017 3.68663 56.7207 3.68652C58.05 3.68652 59.1491 4.18212 60.0117 5.16602C60.8837 4.18196 61.9878 3.68663 63.3174 3.68652ZM74.2822 3.68652C75.7959 3.68652 77.0961 4.22716 78.1738 5.30469C79.2517 6.38255 79.7918 7.68743 79.792 9.21094C79.792 9.55301 79.7605 9.89066 79.6982 10.2227L79.6807 10.3174H79.584L71.2188 10.332C71.4424 10.9313 71.8097 11.4309 72.3262 11.8301L72.5469 11.9814C73.069 12.3117 73.6468 12.4764 74.2822 12.4766C74.8631 12.4766 75.4467 12.3441 76.0322 12.0762L76.2559 11.9688C76.757 11.71 77.1258 11.3974 77.3701 11.0352L77.4355 10.9385L77.5322 11.0039L79.1924 12.1318L79.2881 12.1963L79.2236 12.292C78.7328 13.0231 78.0191 13.6087 77.0898 14.0527C76.1715 14.4963 75.2352 14.7207 74.2822 14.7207C72.7588 14.7205 71.4548 14.1794 70.377 13.1016C69.2994 12.0238 68.7578 10.7246 68.7578 9.21094C68.758 7.68743 69.2991 6.38255 70.377 5.30469C71.4547 4.22713 72.759 3.68673 74.2822 3.68652ZM42.2676 3.93164H46.8555V5.84766H42.2676V10.9785C42.2677 11.6044 42.4357 12.0193 42.7168 12.2852C43.0215 12.5603 43.417 12.7129 43.9287 12.7236H43.9326C44.2833 12.7346 44.6819 12.6902 45.1309 12.5869C45.5677 12.4745 45.9329 12.3099 46.2314 12.0967L46.5723 11.8525L46.75 12.2334L47.2412 13.2891L47.3789 13.584L47.0938 13.7412C46.605 14.0112 46.0566 14.2276 45.4512 14.3916L45.4502 14.3906C44.8382 14.5684 44.2288 14.6535 43.623 14.6406L43.6211 14.6396C43.1291 14.6267 42.6687 14.5495 42.2432 14.4033C41.8104 14.2546 41.432 14.0284 41.1143 13.7246C40.7968 13.421 40.5516 13.0508 40.377 12.6211L40.375 12.6172C40.198 12.1677 40.1143 11.6552 40.1143 11.0879V5.84766H37.4023V3.93164H40.1143V0.618164H42.2676V3.93164ZM4.96973 7.63477C6.0743 7.63477 6.96973 8.5302 6.96973 9.63477V12.6045C6.96973 13.7091 6.0743 14.6045 4.96973 14.6045H1.99902C0.894677 14.6042 0 13.7089 0 12.6045V9.63477C0 8.5302 0.895431 7.63477 2 7.63477H4.96973ZM43.291 14.2715L43.6309 14.292C43.702 14.2935 43.7734 14.2933 43.8447 14.292C43.7733 14.2933 43.7021 14.2925 43.6309 14.291C43.4131 14.2853 43.2035 14.2642 43.002 14.2314C43.0966 14.2469 43.1927 14.2621 43.291 14.2715ZM42.5791 14.1416C42.5955 14.1461 42.6124 14.149 42.6289 14.1533C42.5364 14.1292 42.4452 14.1037 42.3564 14.0732L42.5791 14.1416ZM46.2285 13.7637C46.3446 13.717 46.4584 13.6697 46.5684 13.6182L46.5869 13.6084C46.4708 13.6628 46.3512 13.7143 46.2285 13.7637ZM24.9268 13.002C24.8485 13.0572 24.7636 13.1056 24.6748 13.1504C24.7633 13.1057 24.8477 13.058 24.9258 13.0029L24.9268 13.002ZM11.3135 12.8115C11.3895 12.8663 11.4682 12.9179 11.5498 12.9658H11.5508C11.469 12.9178 11.3898 12.8664 11.3135 12.8115ZM30.8018 12.6934C30.8351 12.7317 30.8712 12.7666 30.9062 12.8018L30.8027 12.6934C30.7891 12.6777 30.7768 12.6607 30.7637 12.6445C30.7767 12.6605 30.7883 12.6778 30.8018 12.6934ZM74.2822 12.5928L74.2832 12.5938C74.3718 12.5937 74.4602 12.589 74.5488 12.583C74.4599 12.589 74.3711 12.5928 74.2822 12.5928ZM76.0801 12.1816C75.8554 12.2844 75.6309 12.3684 75.4062 12.4326C75.3139 12.459 75.2213 12.4811 75.1289 12.501C75.4462 12.4327 75.7638 12.3278 76.0811 12.1826L76.0801 12.1816ZM20.458 12.2197C20.4696 12.2348 20.4823 12.2489 20.4941 12.2637C20.4772 12.2426 20.4598 12.2218 20.4434 12.2002L20.458 12.2197ZM27.0557 11.6553H27.0566C27.0566 11.5724 27.0517 11.4914 27.0449 11.4121C27.0517 11.4913 27.0557 11.5724 27.0557 11.6553ZM26.8809 10.7236C26.9353 10.8552 26.977 10.9933 27.0059 11.1387C26.977 10.9933 26.9353 10.8553 26.8809 10.7236ZM26.3457 9.96289C26.5213 10.125 26.664 10.3048 26.7744 10.502C26.7383 10.4375 26.7002 10.3742 26.6572 10.3135C26.5685 10.1884 26.4649 10.0711 26.3467 9.96191L26.3457 9.96289ZM16.5928 9.96289C16.6517 10.0173 16.7071 10.0736 16.7588 10.1318L16.5928 9.96191C16.5717 9.94199 16.5491 9.92373 16.5273 9.9043C16.5493 9.9238 16.5716 9.94281 16.5928 9.96289ZM16.0859 9.5752C16.217 9.65767 16.3399 9.74603 16.4541 9.84082C16.4398 9.82884 16.4267 9.81549 16.4121 9.80371C16.3107 9.72163 16.2007 9.64738 16.0859 9.5752ZM20.8086 9.35449C20.8797 9.38761 20.952 9.42024 21.0264 9.4502C21.1639 9.50555 21.308 9.5532 21.457 9.59766C21.2276 9.5289 21.0112 9.44878 20.8086 9.35449ZM20.1621 8.97852C20.2266 9.02519 20.2929 9.07034 20.3613 9.11328C20.4265 9.15421 20.4938 9.19281 20.5625 9.23047C20.4218 9.15334 20.2883 9.06945 20.1621 8.97852ZM68.8809 8.94336C68.877 9.03178 68.874 9.12094 68.874 9.21094L68.875 9.21191C68.875 9.12165 68.8772 9.03211 68.8809 8.94336ZM23.3057 8.74316C23.6697 8.8281 24.0582 8.91855 24.4707 9.01562H24.4717C24.0594 8.91862 23.6705 8.82806 23.3066 8.74316C22.9549 8.64612 22.578 8.54276 22.1777 8.43359H22.1768C22.5772 8.54281 22.9537 8.64608 23.3057 8.74316ZM11.4404 8.01465C11.5738 8.11165 11.7258 8.19676 11.8955 8.26953H11.8965C11.7267 8.19676 11.5748 8.11166 11.4414 8.01465C11.4323 8.00719 11.424 7.99883 11.415 7.99121C11.4237 7.9987 11.4315 8.00733 11.4404 8.01465ZM77.4053 7.94922C77.4387 8.03284 77.4691 8.11849 77.4971 8.20605H77.498C77.4701 8.11838 77.4389 8.03289 77.4053 7.94922ZM74.2822 5.92969C73.556 5.92986 72.9049 6.14561 72.3262 6.57715C71.8092 6.97657 71.4415 7.48079 71.2178 8.08984H77.332C77.1081 7.48045 76.7402 6.97567 76.2227 6.57617V6.5752C75.644 6.1444 74.9974 5.92969 74.2822 5.92969ZM20.8662 7.63281C20.9086 7.70544 20.9573 7.77334 21.0117 7.83691C20.9574 7.77316 20.9096 7.70449 20.8672 7.63184L20.8662 7.63281ZM11.0039 7.06836C11.0039 7.07688 11.0057 7.08532 11.0059 7.09375L11.0049 7.06836C11.0049 7.04508 11.0058 7.02198 11.0068 6.99902C11.0058 7.022 11.0039 7.04507 11.0039 7.06836ZM20.7568 7.06836C20.7568 7.07688 20.7586 7.08532 20.7588 7.09375L20.7578 7.06836C20.7578 7.0124 20.7606 6.9574 20.7666 6.90332C20.7606 6.95739 20.7568 7.0124 20.7568 7.06836ZM26.3984 7.04395C26.3412 7.07341 26.2811 7.0892 26.2207 7.09375C26.25 7.09156 26.2797 7.08698 26.3086 7.0791L26.3994 7.04395L26.5596 6.96094L26.3984 7.04395ZM72.2568 6.48438C72.1122 6.59606 71.9789 6.71621 71.8564 6.84375L72.0488 6.6582C72.1156 6.59847 72.1846 6.54015 72.2568 6.48438ZM11.04 6.74316C11.0365 6.75863 11.0343 6.7744 11.0312 6.79004C11.0355 6.76779 11.0396 6.74554 11.0449 6.72363L11.04 6.74316ZM64.9316 6.48438C64.9873 6.54007 65.0401 6.59772 65.0889 6.65625H65.0898C65.041 6.59755 64.9885 6.54022 64.9326 6.48438C64.8835 6.43523 64.8326 6.38944 64.7812 6.3457C64.8324 6.3893 64.8827 6.43542 64.9316 6.48438ZM17.1377 6.29395C17.1676 6.34594 17.1849 6.40078 17.1904 6.45605C17.1877 6.42933 17.183 6.4023 17.1748 6.37598L17.1387 6.29297L17.1377 6.29395ZM25.5811 4.91992C25.6491 4.96319 25.7156 5.00792 25.7803 5.05469C25.7159 5.00814 25.6498 4.96308 25.582 4.91992H25.5811ZM29.7363 4.59277C29.7974 4.59277 29.8558 4.60456 29.9092 4.62598C29.8838 4.61579 29.8575 4.60716 29.8301 4.60156L29.7373 4.59277H29.7363ZM13.2246 4.26465C13.483 4.26465 13.7299 4.27813 13.9648 4.30371C13.8513 4.29134 13.7352 4.2808 13.6162 4.27441C13.4891 4.26759 13.3589 4.26466 13.2256 4.26465H13.2246ZM74.2822 3.80273C74.0024 3.80277 73.7303 3.82219 73.4658 3.85938C73.7306 3.82219 74.0031 3.80371 74.2832 3.80371L74.2822 3.80273ZM63.3174 3.80371C63.4225 3.80371 63.5264 3.80686 63.6289 3.81348C63.5981 3.81141 63.5672 3.80903 63.5361 3.80762C63.464 3.80434 63.3908 3.80273 63.3174 3.80273V3.80371ZM51.0205 2.18262H48.7773V0H51.0205V2.18262Z" fill="#FE2B27"/>
<path d="M1.86182 11.1631L2.94479 12.246L5.1105 10.0801" stroke="white" stroke-width="0.8" stroke-linecap="round" stroke-linejoin="round"/>
</svg>


