<svg width="18" height="18" viewBox="0 0 18 18" fill="none" xmlns="http://www.w3.org/2000/svg">
<path d="M12.75 14.9999C12.75 13.7573 11.0711 12.7499 9 12.7499C6.92893 12.7499 5.25 13.7573 5.25 14.9999M15.75 12.7502C15.75 11.8276 14.8244 11.0346 13.5 10.6874M2.25 12.7502C2.25 11.8276 3.17557 11.0346 4.5 10.6874M13.5 7.67702C13.9603 7.26503 14.25 6.66631 14.25 5.99994C14.25 4.7573 13.2426 3.74994 12 3.74994C11.4237 3.74994 10.8981 3.96658 10.5 4.32286M4.5 7.67702C4.03969 7.26503 3.75 6.66631 3.75 5.99994C3.75 4.7573 4.75736 3.74994 6 3.74994C6.57627 3.74994 7.10193 3.96658 7.5 4.32286M9 10.4999C7.75736 10.4999 6.75 9.49258 6.75 8.24994C6.75 7.0073 7.75736 5.99994 9 5.99994C10.2426 5.99994 11.25 7.0073 11.25 8.24994C11.25 9.49258 10.2426 10.4999 9 10.4999Z" stroke="#7D7D7D" stroke-width="1.5" stroke-linecap="round" stroke-linejoin="round"/>
</svg>


